<svg xmlns="http://www.w3.org/2000/svg" xmlns:svgjs="http://svgjs.dev/svgjs" xmlns:xlink="http://www.w3.org/1999/xlink" width="1000" height="1000" version="1.1" viewBox="0 0 1000 1000"><rect width="1000" height="1000" fill="#31c48d"/><g transform="matrix(0.7,0,0,0.7,150,106.25)"><svg xmlns="http://www.w3.org/2000/svg" xmlns:xlink="http://www.w3.org/1999/xlink" width="1000" height="1125" data-background-color="#31c48d" preserveAspectRatio="xMidYMid meet" viewBox="0 0 320 360"><g id="tight-bounds" transform="matrix(1,0,0,1,0,0)"><svg width="320" height="360" viewBox="0 0 320 360"><g><svg/></g><g><svg width="320" height="360" viewBox="0 0 320 360"><g><path xmlns="http://www.w3.org/2000/svg" fill="#fff" fill-rule="nonzero" stroke="none" stroke-dashoffset="0" stroke-linecap="butt" stroke-linejoin="miter" stroke-miterlimit="10" stroke-width="1" d="M160 340c88.258 0 160-71.742 160-160 0-88.258-71.742-160-160-160-88.258 0-160 71.742-160 160 0 88.258 71.742 160 160 160zM165.161 329.368v-10.323c72.671-2.684 131.2-61.213 133.884-133.884h10.323c-2.684 78.452-65.755 141.523-144.207 144.207zM165.161 30.632c78.452 2.684 141.523 65.755 144.207 144.207h-10.323c-2.684-72.671-61.213-131.2-133.884-133.884zM289.032 180c0 71.123-57.91 129.032-129.032 129.032-71.123 0-129.032-57.91-129.032-129.032 0-71.123 57.91-129.032 129.032-129.032 71.123 0 129.032 57.91 129.032 129.032zM154.839 30.632v10.323c-72.671 2.684-131.2 61.213-133.884 133.884h-10.323c2.684-78.452 65.755-141.523 144.207-144.207zM20.955 185.161c2.684 72.671 61.213 131.2 133.884 133.884v10.323c-78.452-2.684-141.523-65.755-144.207-144.207z" data-fill-palette-color="tertiary" font-family="none" font-size="none" font-weight="none" text-anchor="none" style="mix-blend-mode:normal"/></g><g transform="matrix(1,0,0,1,64,117.45681622305489)"><svg width="192" height="125.086" viewBox="0 0 192 125.086"><g><svg width="192" height="125.086" viewBox="0 0 192 125.086"><g><svg width="192" height="125.086" viewBox="0 0 276.289 180"><g><svg width="144.497" height="180" viewBox="0 0 144.497 180"><g><svg width="144.497" height="180" viewBox="0 0 144.497 180"><g><svg width="144.497" height="180" viewBox="0 0 144.497 180"><g transform="matrix(1,0,0,1,0,0)"><svg width="144.497" height="180" data-palette-color="#ffffff" viewBox="4.45 -36.25 29.1 36.25"><path id="text-0" fill="#fff" d="M9.9 0L4.45 0 4.45-36.25 9.9-36.25 9.9-20.85 28.05-20.85 28.05-36.25 33.55-36.25Q33.55-35.6 33.55-33.83 33.55-32.05 33.55-29.6 33.55-27.15 33.55-24.18 33.55-21.2 33.52-18.13 33.5-15.05 33.5-12.08 33.5-9.1 33.5-6.65 33.5-4.2 33.5-2.43 33.5-0.65 33.5 0L33.5 0 28.05 0 28.05-15.65 9.9-15.65 9.9 0Z" class="undefined-text-0" data-fill-palette-color="primary" opacity="1" transform="matrix(1,0,0,1,0,0)"/></svg></g></svg></g></svg></g></svg></g><g transform="matrix(1,0,0,1,186.99023172413794,51.087655009063354)"><svg width="89.299" height="77.825" viewBox="0 0 89.299 77.825"><g><svg xmlns="http://www.w3.org/2000/svg" xmlns:xlink="http://www.w3.org/1999/xlink" id="icon-0" width="89.299" height="77.825" x="0" y="0" class="icon-icon-0" data-fill-palette-color="accent" enable-background="new 0 0 50 50" version="1.0" viewBox="1.118 4.119 47.921 41.764" xml:space="preserve"><g fill="#fff" data-fill-palette-color="accent"><g fill="#fff" data-fill-palette-color="accent"><polygon fill="#fff" points="10.821 24.951 21 32.193 21 39.035 1.118 24.891 21 11.118 21 17.9" data-fill-palette-color="accent"/></g><g fill="#fff" data-fill-palette-color="accent"><polygon fill="#fff" points="49.039 25.277 35.815 16.063 34.219 21.712 39.475 25.338 31.411 30.97 29 38.79 29 39.424" data-fill-palette-color="accent"/></g><rect width="4.981" height="42.035" x="25.577" y="3.983" fill="#fff" data-fill-palette-color="accent" transform="matrix(0.9606 0.278 -0.278 0.9606 8.0575 -6.8179)"/></g></svg></g></svg></g></svg></g></svg></g></svg></g></svg></g></svg><rect width="320" height="360" fill="none" stroke="none" visibility="hidden"/></g></svg></g></svg>