<svg xmlns="http://www.w3.org/2000/svg" version="1.1" xmlns:xlink="http://www.w3.org/1999/xlink" xmlns:svgjs="http://svgjs.dev/svgjs" width="1000" height="1000" viewBox="0 0 1000 1000"><rect width="1000" height="1000" fill="#ffffff"></rect><g transform="matrix(0.7,0,0,0.7,150,106.25)"><svg viewBox="0 0 320 360" data-background-color="#31c48d" preserveAspectRatio="xMidYMid meet" height="1125" width="1000" xmlns="http://www.w3.org/2000/svg" xmlns:xlink="http://www.w3.org/1999/xlink"><g id="tight-bounds" transform="matrix(1,0,0,1,0,0)"><svg viewBox="0 0 320 360" height="360" width="320"><g><svg></svg></g><g><svg viewBox="0 0 320 360" height="360" width="320"><g><path xmlns="http://www.w3.org/2000/svg" d="M160 340c88.258 0 160-71.742 160-160 0-88.258-71.742-160-160-160-88.258 0-160 71.742-160 160 0 88.258 71.742 160 160 160zM165.161 329.368v-10.323c72.671-2.684 131.2-61.213 133.884-133.884h10.323c-2.684 78.452-65.755 141.523-144.207 144.207zM165.161 30.632c78.452 2.684 141.523 65.755 144.207 144.207h-10.323c-2.684-72.671-61.213-131.2-133.884-133.884zM289.032 180c0 71.123-57.91 129.032-129.032 129.032-71.123 0-129.032-57.91-129.032-129.032 0-71.123 57.91-129.032 129.032-129.032 71.123 0 129.032 57.91 129.032 129.032zM154.839 30.632v10.323c-72.671 2.684-131.2 61.213-133.884 133.884h-10.323c2.684-78.452 65.755-141.523 144.207-144.207zM20.955 185.161c2.684 72.671 61.213 131.2 133.884 133.884v10.323c-78.452-2.684-141.523-65.755-144.207-144.207z" fill="#ffffff" fill-rule="nonzero" stroke="none" stroke-width="1" stroke-linecap="butt" stroke-linejoin="miter" stroke-miterlimit="10" stroke-dasharray="" stroke-dashoffset="0" font-family="none" font-weight="none" font-size="none" text-anchor="none" style="mix-blend-mode: normal" data-fill-palette-color="tertiary"></path></g><g transform="matrix(1,0,0,1,64,117.45681622305489)"><svg viewBox="0 0 192 125.08636755389024" height="125.08636755389024" width="192"><g><svg viewBox="0 0 192 125.08636755389024" height="125.08636755389024" width="192"><g><svg viewBox="0 0 276.2891006896552 180" height="125.08636755389024" width="192"><g><svg viewBox="0 0 144.49655172413793 180" height="180" width="144.49655172413793"><g><svg viewBox="0 0 144.49655172413793 180" height="180" width="144.49655172413793"><g><svg viewBox="0 0 144.49655172413793 180" height="180" width="144.49655172413793"><g transform="matrix(1,0,0,1,0,0)"><svg width="144.49655172413793" viewBox="4.449999809265137 -36.25 29.099998474121094 36.25" height="180" data-palette-color="#ffffff"><path d="M9.9 0L4.45 0 4.45-36.25 9.9-36.25 9.9-20.85 28.05-20.85 28.05-36.25 33.55-36.25Q33.55-35.6 33.55-33.83 33.55-32.05 33.55-29.6 33.55-27.15 33.55-24.18 33.55-21.2 33.52-18.13 33.5-15.05 33.5-12.08 33.5-9.1 33.5-6.65 33.5-4.2 33.5-2.43 33.5-0.65 33.5 0L33.5 0 28.05 0 28.05-15.65 9.9-15.65 9.9 0Z" opacity="1" transform="matrix(1,0,0,1,0,0)" fill="#000000" class="undefined-text-0" data-fill-palette-color="primary" id="text-0"></path></svg></g></svg></g></svg></g></svg></g><g transform="matrix(1,0,0,1,186.99023172413794,51.087655009063354)"><svg viewBox="0 0 89.29886896551724 77.82468998187329" height="77.82468998187329" width="89.29886896551724"><g><svg xmlns="http://www.w3.org/2000/svg" xmlns:xlink="http://www.w3.org/1999/xlink" version="1.0" x="0" y="0" viewBox="1.1180000305175781 4.118575572967529 47.92100143432617 41.76354217529297" enable-background="new 0 0 50 50" xml:space="preserve" height="77.82468998187329" width="89.29886896551724" class="icon-icon-0" data-fill-palette-color="accent" id="icon-0"><g fill="#ffffff" data-fill-palette-color="accent"><g fill="#ffffff" data-fill-palette-color="accent"><polygon fill="#000000" points="10.821,24.951 21,32.193 21,39.035 1.118,24.891 21,11.118 21,17.9   " data-fill-palette-color="accent"></polygon></g><g fill="#ffffff" data-fill-palette-color="accent"><polygon fill="#000000" points="49.039,25.277 35.815,16.063 34.219,21.712 39.475,25.338 31.411,30.97 29,38.79 29,39.424   " data-fill-palette-color="accent"></polygon></g><rect x="25.577" y="3.983" transform="matrix(0.9606 0.278 -0.278 0.9606 8.0575 -6.8179)" fill="#000000" width="4.981" height="42.035" data-fill-palette-color="accent"></rect></g></svg></g></svg></g></svg></g></svg></g></svg></g></svg></g><defs></defs></svg><rect width="320" height="360" fill="none" stroke="none" visibility="hidden"></rect></g></svg></g></svg>